<?xml version="1.0" encoding="UTF-8"?>
<svg xmlns="http://www.w3.org/2000/svg" xmlns:xlink="http://www.w3.org/1999/xlink" width="650pt" height="275pt" viewBox="0 0 650 275" version="1.2">
    <g id="surface34080">
        <path style="fill:none;stroke-width:5;stroke-linecap:round;stroke-linejoin:round;stroke:#47d9d9;stroke-opacity:1;stroke-miterlimit:10" d="M 125 25 L 25 225 L 75 125 L 175 75 L 125 25 "/>
        <path style="fill:none;stroke-width:5;stroke-linecap:round;stroke-linejoin:round;stroke:#47d9d9;stroke-opacity:1;stroke-miterlimit:10" d="M 150 200 L 150 225 L 125 225 L 125 200 L 150 200 "/>
        <path style="fill:none;stroke-width:5;stroke-linecap:round;stroke-linejoin:round;stroke:#47d9d9;stroke-opacity:1;stroke-miterlimit:10" d="M 200 125 L 200 225 L 200 125 L 250 225 L 300 125 L 300 225 "/>
        <path style="fill:none;stroke-width:5;stroke-linecap:round;stroke-linejoin:round;stroke:#47d9d9;stroke-opacity:1;stroke-miterlimit:10" d="M 325 125 L 325 225 L 400 225 L 400 125 "/>
        <path style="fill:none;stroke-width:5;stroke-linecap:round;stroke-linejoin:round;stroke:#47d9d9;stroke-opacity:1;stroke-miterlimit:10" d="M 425 125 L 425 225 L 425 125 L 475 225 L 525 125 L 525 225 "/>
        <path style="fill:none;stroke-width:5;stroke-linecap:round;stroke-linejoin:round;stroke:#47d9d9;stroke-opacity:1;stroke-miterlimit:10" d="M 600 125 L 550 125 L 550 225 L 600 225 L 550 225 L 550 175 L 600 175 "/>
    </g>
</svg>
